<?xml version="1.0" encoding="UTF-8"?>
<svg width="24px" height="24px" viewBox="0 0 24 24" version="1.1" xmlns="http://www.w3.org/2000/svg" xmlns:xlink="http://www.w3.org/1999/xlink">
    <!-- Generator: Sketch 40.3 (33839) - http://www.bohemiancoding.com/sketch -->
    <title>Menu</title>
    <desc>Created with Sketch.</desc>
    <defs></defs>
    <g id="zhiren_icon" stroke="none" stroke-width="1" fill="none" fill-rule="evenodd">
        <g id="Main" transform="translate(1.000000, 5.000000)" fill="#9B9B9B">
            <path d="M0,1 C0,0.723857625 0.217741728,0.5 0.500836134,0.5 L21.4991639,0.5 C21.775768,0.5 22,0.731933594 22,1 C22,1.27614237 21.7822583,1.5 21.4991639,1.5 L0.500836134,1.5 C0.224231975,1.5 0,1.26806641 0,1 Z M0,7 C0,6.72385763 0.217741728,6.5 0.500836134,6.5 L21.4991639,6.5 C21.775768,6.5 22,6.73193359 22,7 C22,7.27614237 21.7822583,7.5 21.4991639,7.5 L0.500836134,7.5 C0.224231975,7.5 0,7.26806641 0,7 Z M0,13 C0,12.7238576 0.217741728,12.5 0.500836134,12.5 L21.4991639,12.5 C21.775768,12.5 22,12.7319336 22,13 C22,13.2761424 21.7822583,13.5 21.4991639,13.5 L0.500836134,13.5 C0.224231975,13.5 0,13.2680664 0,13 Z" id="Menu"></path>
        </g>
    </g>
</svg>